#!OML:ASF H:\Pregnant\Project 1\Capture day 1\Session 1\femalepreg.ASF
:FULLY-SPECIFIED
:DEGREES
1156
root 4.62733 11.272 21.4295 -75.141 1.98462 -181.722
lowerback 13.1955 -1.14871 -4.8638
upperback 2.54287 -2.17405 3.2187
thorax -4.40297 -1.0536 6.53465
lowerneck -49.6039 3.78197 0.562747
upperneck 21.8893 5.62643 -1.45254
head 14.7625 2.19076 0.582538
rclavicle -1.19271e-014 4.37326e-015
rhumerus 80.4459 -22.6537 -29.842
rradius 32.3346
rwrist -4.12659
rhand -54.9072 -19.869
rfingers 7.12502
rthumb -27.2914 -47.9139
lclavicle -1.19271e-014 4.37326e-015
lhumerus 80.5653 21.4221 41.9733
lradius 36.7927
lwrist 21.1279
lhand -52.2767 -48.2415
lfingers 7.12502
lthumb -24.7727 -19.8258
rfemur -110.514 -0.16767 2.75425
rtibia 86.6161
rfoot -18.1936 -18.4651
rtoes -24.0947
lfemur -84.2681 -13.2974 -2.97321
ltibia 37.9012
lfoot -37.3485 18.0657
ltoes -32.718
1157
root 4.61311 11.2578 21.3937 -75.6205 1.95603 -181.713
lowerback 13.3694 -1.16376 -4.89821
upperback 2.59598 -2.20996 3.24239
thorax -4.43469 -1.07303 6.59266
lowerneck -49.5561 3.74234 0.438098
upperneck 22.0067 5.62161 -1.35977
head 14.802 2.18899 0.640117
rclavicle -3.97569e-015 -4.13472e-014
rhumerus 80.5607 -21.9947 -30.6703
rradius 32.2788
rwrist -3.29892
rhand -54.9884 -19.744
rfingers 7.12502
rthumb -27.369 -47.7767
lclavicle -3.97569e-015 -4.13472e-014
lhumerus 80.1701 20.9801 41.9088
lradius 36.8459
lwrist 21.1064
lhand -52.2829 -48.8673
lfingers 7.12502
lthumb -24.7786 -20.4524
rfemur -110.87 -0.232412 3.29854
rtibia 88.0154
rfoot -17.3655 -17.6348
rtoes -23.4724
lfemur -83.6285 -13.5732 -3.05605
ltibia 37.9443
lfoot -37.3786 18.0753
ltoes -32.7602
1158
root 4.59891 11.2448 21.3566 -76.1146 1.92689 -181.709
lowerback 13.5824 -1.17985 -4.93263
upperback 2.63776 -2.2487 3.2649
thorax -4.49929 -1.09219 6.65245
lowerneck -49.5005 3.71225 0.323809
upperneck 22.1368 5.62402 -1.27338
head 14.8467 2.18939 0.695275
rclavicle -2.06736e-014 7.95139e-015
rhumerus 80.652 -21.3212 -31.4967
rradius 32.2109
rwrist -2.46426
rhand -55.0588 -19.6233
rfingers 7.12502
rthumb -27.4364 -47.6453
lclavicle -2.06736e-014 7.95139e-015
lhumerus 79.7622 20.5208 41.8317
lradius 36.886
lwrist 21.0937
lhand -52.2902 -49.518
lfingers 7.12502
lthumb -24.7857 -21.1041
rfemur -111.207 -0.302197 3.86264
rtibia 89.4175
rfoot -16.8426 -16.7981
rtoes -23.0143
lfemur -82.9658 -13.8646 -3.13228
ltibia 37.9749
lfoot -37.3946 18.1115
ltoes -32.8521
1159
root 4.58496 11.2318 21.3204 -76.5827 1.9009 -181.707
lowerback 13.7838 -1.19956 -4.97197
upperback 2.6631 -2.29167 3.28299
thorax -4.57412 -1.11211 6.71125
lowerneck -49.4282 3.69596 0.230584
upperneck 22.2583 5.63412 -1.19804
head 14.8868 2.19323 0.744323
rclavicle 2.06736e-014 3.97569e-015
rhumerus 80.7078 -20.6471 -32.2912
rradius 32.1323
rwrist -1.65459
rhand -55.1239 -19.5103
rfingers 7.12502
rthumb -27.4987 -47.5225
lclavicle 2.06736e-014 3.97569e-015
lhumerus 79.3432 20.0515 41.735
lradius 36.9175
lwrist 21.0934
lhand -52.3016 -50.1834
lfingers 7.12502
lthumb -24.7966 -21.771
rfemur -111.597 -0.406081 4.47456
rtibia 90.8259
rfoot -16.6302 -15.9291
rtoes -22.7326
lfemur -82.3305 -14.1462 -3.20766
ltibia 38.0013
lfoot -37.394 18.1512
ltoes -32.9852
1160
root 4.57136 11.2189 21.2851 -77.012 1.87856 -181.701
lowerback 13.9492 -1.22717 -5.01793
upperback 2.68874 -2.34502 3.28749
thorax -4.62744 -1.13773 6.75926
lowerneck -49.3603 3.7098 0.193268
upperneck 22.3373 5.65448 -1.14045
head 14.9106 2.20519 0.780059
rclavicle -8.74653e-015 -1.59028e-015
rhumerus 80.7354 -20.0184 -33.0173
rradius 32.0434
rwrist -0.935502
rhand -55.1888 -19.4367
rfingers 7.12502
rthumb -27.5607 -47.439
lclavicle -8.74653e-015 -1.59028e-015
lhumerus 78.9356 19.595 41.6206
lradius 36.9447
lwrist 21.0867
lhand -52.3127 -50.8642
lfingers 7.12502
lthumb -24.8072 -22.4533
rfemur -112.063 -0.543767 5.13081
rtibia 92.2286
rfoot -16.7004 -15.0484
rtoes -22.7482
lfemur -81.7388 -14.4088 -3.27978
ltibia 38.0288
lfoot -37.3763 18.1728
ltoes -33.1228
1161
root 4.55808 11.2062 21.2499 -77.4129 1.85242 -181.69
lowerback 14.0783 -1.2481 -5.07134
upperback 2.70691 -2.38843 3.29534
thorax -4.66964 -1.15832 6.8121
lowerneck -49.2648 3.72741 0.171832
upperneck 22.3948 5.67618 -1.10538
head 14.9231 2.21598 0.803445
rclavicle -1.59028e-015 1.59028e-015
rhumerus 80.7172 -19.4061 -33.6606
rradius 31.9327
rwrist -0.262597
rhand -55.2666 -19.402
rfingers 7.12502
rthumb -27.6352 -47.3923
lclavicle -1.59028e-015 1.59028e-015
lhumerus 78.5446 19.1168 41.5382
lradius 36.9648
lwrist 21.0649
lhand -52.3298 -51.5584
lfingers 7.12502
lthumb -24.8236 -23.1497
rfemur -112.589 -0.704088 5.83137
rtibia 93.6065
rfoot -16.9582 -14.1693
rtoes -23.049
lfemur -81.1773 -14.6532 -3.34391
ltibia 38.0573
lfoot -37.3472 18.177
ltoes -33.2412
1162
root 4.54515 11.1931 21.2149 -77.8088 1.82757 -181.672
lowerback 14.1908 -1.2654 -5.13353
upperback 2.74007 -2.42896 3.29799
thorax -4.68705 -1.1791 6.86262
lowerneck -49.1965 3.75509 0.166239
upperneck 22.4596 5.70238 -1.07217
head 14.9424 2.2295 0.825264
rclavicle 1.51076e-014 -1.59028e-015
rhumerus 80.6667 -18.8421 -34.2004
rradius 31.8053
rwrist 0.317744
rhand -55.3592 -19.42
rfingers 7.12502
rthumb -27.7236 -47.3962
lclavicle 1.51076e-014 -1.59028e-015
lhumerus 78.1761 18.6547 41.4523
lradius 36.984
lwrist 21.0476
lhand -52.3451 -52.2533
lfingers 7.12502
lthumb -24.8383 -23.8466
rfemur -113.153 -0.88307 6.57896
rtibia 94.9506
rfoot -17.2881 -13.3284
rtoes -23.6713
lfemur -80.6172 -14.8871 -3.41181
ltibia 38.0819
lfoot -37.3078 18.1647
ltoes -33.3239
1163
root 4.53224 11.181 21.1776 -78.2076 1.78499 -181.649
lowerback 14.2999 -1.27846 -5.1838
upperback 2.78401 -2.46277 3.30289
thorax -4.69246 -1.1978 6.90711
lowerneck -49.1511 3.79178 0.173675
upperneck 22.5475 5.73634 -1.05128
head 14.9755 2.24418 0.842084
rclavicle -7.15625e-015 5.56597e-015
rhumerus 80.5778 -18.3124 -34.6236
rradius 31.6613
rwrist 0.8127
rhand -55.4681 -19.5092
rfingers 7.12502
rthumb -27.8278 -47.4685
lclavicle -7.15625e-015 5.56597e-015
lhumerus 77.8254 18.2007 41.3625
lradius 36.9982
lwrist 21.0389
lhand -52.3683 -52.9637
lfingers 7.12502
lthumb -24.8605 -24.5601
rfemur -113.713 -1.04663 7.34879
rtibia 96.2327
rfoot -17.5918 -12.5891
rtoes -24.575
lfemur -80.0385 -15.1111 -3.46626
ltibia 38.0882
lfoot -37.2514 18.1436
ltoes -33.3839
1164
root 4.5193 11.1692 21.1388 -78.621 1.7393 -181.62
lowerback 14.4238 -1.25176 -5.26719
upperback 2.7853 -2.44618 3.33589
thorax -4.75625 -1.18692 6.99521
lowerneck -48.9524 3.7902 0.147783
upperneck 22.6144 5.74451 -1.05684
head 14.9817 2.24121 0.843892
rclavicle -2.14687e-014 3.22031e-014
rhumerus 80.3118 -17.7708 -34.7782
rradius 31.5239
rwrist 1.19196
rhand -55.5966 -19.6751
rfingers 7.12502
rthumb -27.9507 -47.6145
lclavicle -2.14687e-014 3.22031e-014
lhumerus 77.5127 17.5821 41.4681
lradius 36.9727
lwrist 20.9121
lhand -52.3984 -53.7244
lfingers 7.12502
lthumb -24.8894 -25.3248
rfemur -114.263 -1.20375 8.13707
rtibia 97.4576
rfoot -17.7981 -11.9675
rtoes -25.672
lfemur -79.426 -15.3337 -3.52589
ltibia 38.0693
lfoot -37.1788 18.1092
ltoes -33.4054
1165
root 4.50621 11.1583 21.0985 -79.0262 1.68646 -181.582
lowerback 14.5351 -1.23928 -5.32779
upperback 2.81769 -2.44696 3.35721
thorax -4.77891 -1.18807 7.05861
lowerneck -48.8174 3.8029 0.126702
upperneck 22.6525 5.76538 -1.04137
head 14.9816 2.24901 0.857677
rclavicle -6.75868e-014 4.81059e-014
rhumerus 80.0769 -17.2679 -34.8845
rradius 31.3721
rwrist 1.5016
rhand -55.7288 -19.9155
rfingers 7.12502
rthumb -28.077 -47.8343
lclavicle -6.75868e-014 4.81059e-014
lhumerus 77.191 17.07 41.4384
lradius 36.9582
lwrist 20.8919
lhand -52.4068 -54.4569
lfingers 7.12502
lthumb -24.8974 -26.0584
rfemur -114.822 -1.3453 8.92998
rtibia 98.6222
rfoot -17.9069 -11.4502
rtoes -26.8533
lfemur -78.8035 -15.5438 -3.58119
ltibia 38.0248
lfoot -37.0829 18.0769
ltoes -33.4322
1166
root 4.4929 11.1489 21.0564 -79.4258 1.62923 -181.536
lowerback 14.641 -1.23309 -5.37748
upperback 2.86496 -2.45563 3.37035
thorax -4.78232 -1.19484 7.10737
lowerneck -48.7296 3.8281 0.114942
upperneck 22.7093 5.79592 -1.01839
head 14.9952 2.26222 0.876457
rclavicle -1.98785e-014 -1.59028e-015
rhumerus 79.8356 -16.7947 -34.903
rradius 31.2154
rwrist 1.72533
rhand -55.8654 -20.2335
rfingers 7.12502
rthumb -28.2076 -48.1308
lclavicle -1.98785e-014 -1.59028e-015
lhumerus 76.8725 16.6041 41.3421
lradius 36.9389
lwrist 20.9196
lhand -52.4017 -55.1795
lfingers 7.12502
lthumb -24.8925 -26.7804
rfemur -115.383 -1.46981 9.71706
rtibia 99.7301
rfoot -17.9777 -10.977
rtoes -27.9922
lfemur -78.1721 -15.7449 -3.63555
ltibia 37.9632
lfoot -36.964 18.0573
ltoes -33.5042
1167
root 4.47955 11.1395 21.0145 -79.7967 1.56761 -181.476
lowerback 14.7215 -1.17349 -5.47199
upperback 2.81699 -2.39107 3.43029
thorax -4.88089 -1.15599 7.22255
lowerneck -48.3643 3.78335 0.0347612
upperneck 22.7164 5.77947 -1.02945
head 14.9536 2.24574 0.875112
rclavicle 2.06736e-014 9.93923e-015
rhumerus 79.3577 -16.2424 -34.6287
rradius 31.0796
rwrist 1.86938
rhand -56.0062 -20.6196
rfingers 7.12502
rthumb -28.3421 -48.4946
lclavicle 2.06736e-014 9.93923e-015
lhumerus 76.5791 15.8728 41.5474
lradius 36.8596
lwrist 20.7681
lhand -52.3891 -55.9164
lfingers 7.12502
lthumb -24.8804 -27.5156
rfemur -115.992 -1.59202 10.523
rtibia 100.796
rfoot -18.0387 -10.4915
rtoes -28.9614
lfemur -77.5671 -15.9231 -3.68323
ltibia 37.8968
lfoot -36.8231 18.0474
ltoes -33.6108
1168
root 4.46615 11.1302 20.9729 -80.1473 1.50861 -181.4
lowerback 14.7884 -1.09124 -5.59485
upperback 2.72851 -2.29769 3.49419
thorax -5.01899 -1.09855 7.35421
lowerneck -47.891 3.73387 -0.019564
upperneck 22.7121 5.74299 -1.06387
head 14.8953 2.2201 0.854305
rclavicle -4.53229e-014 6.75868e-015
rhumerus 78.7477 -15.6865 -34.1478
rradius 30.9717
rwrist 1.86706
rhand -56.1471 -21.0799
rfingers 7.12502
rthumb -28.4768 -48.9324
lclavicle -4.53229e-014 6.75868e-015
lhumerus 76.3193 14.9996 41.9394
lradius 36.7361
lwrist 20.4587
lhand -52.3523 -56.6731
lfingers 7.12502
lthumb -24.8452 -28.2674
rfemur -116.647 -1.71066 11.3383
rtibia 101.824
rfoot -18.1267 -10.0091
rtoes -29.8209
lfemur -76.9815 -16.0807 -3.73439
ltibia 37.8335
lfoot -36.6655 18.0442
ltoes -33.7378
1169
root 4.45248 11.1215 20.93 -80.4936 1.43585 -181.309
lowerback 14.8598 -0.965139 -5.74058
upperback 2.56774 -2.14425 3.5955
thorax -5.24531 -1.00319 7.53232
lowerneck -47.2133 3.63094 -0.124955
upperneck 22.7046 5.66943 -1.12735
head 14.81 2.16983 0.817345
rclavicle 5.80451e-014 -2.0276e-014
rhumerus 77.9628 -15.0542 -33.4622
rradius 30.8877
rwrist 1.80761
rhand -56.2877 -21.5941
rfingers 7.12502
rthumb -28.6112 -49.4241
lclavicle 5.80451e-014 -2.0276e-014
lhumerus 76.0603 13.9174 42.5929
lradius 36.5665
lwrist 19.9899
lhand -52.3045 -57.4591
lfingers 7.12502
lthumb -24.7994 -29.0471
rfemur -117.306 -1.81458 12.1683
rtibia 102.801
rfoot -18.2389 -9.544
rtoes -30.6002
lfemur -76.3925 -16.2224 -3.77666
ltibia 37.7696
lfoot -36.5003 18.0432
ltoes -33.85
1170
root 4.43865 11.1129 20.8868 -80.8395 1.36437 -181.201
lowerback 14.938 -0.811754 -5.90841
upperback 2.36967 -1.95623 3.7135
thorax -5.52171 -0.885607 7.73696
lowerneck -46.4306 3.49582 -0.263944
upperneck 22.7029 5.57083 -1.19563
head 14.7122 2.10575 0.776862
rclavicle -1.66979e-014 4.37326e-015
rhumerus 77.0862 -14.3745 -32.6647
rradius 30.8248
rwrist 1.7051
rhand -56.428 -22.139
rfingers 7.12502
rthumb -28.7452 -49.9463
lclavicle -1.66979e-014 4.37326e-015
lhumerus 75.7883 12.7276 43.4058
lradius 36.3738
lwrist 19.4218
lhand -52.2558 -58.2626
lfingers 7.12502
lthumb -24.7527 -29.8442
rfemur -117.979 -1.91049 12.9997
rtibia 103.732
rfoot -18.3573 -9.09347
rtoes -31.3188
lfemur -75.7943 -16.3509 -3.82677
ltibia 37.7014
lfoot -36.3243 18.048
ltoes -33.9337
